<svg width="40" height="40" viewBox="0 0 40 40" fill="none" xmlns="http://www.w3.org/2000/svg">
<path d="M40 24.8314C40 23.4813 38.828 22.3813 37.3896 22.3813C37.0634 22.3813 36.7569 22.4437 36.4705 22.5439C35.8179 21.6812 35.0457 20.8125 34.1664 19.9375C38.1551 16.0748 39.9197 12.2811 38.408 9.81862C36.8964 7.36245 32.5214 6.89978 26.9681 8.20609C26.5818 6.98722 26.1358 5.86248 25.6296 4.85597C26.129 4.41228 26.442 3.78729 26.442 3.08721C26.442 1.73714 25.27 0.637083 23.8316 0.637083C23.3788 0.637083 22.9595 0.755921 22.5864 0.94957C21.7145 0.325171 20.8022 0 19.8635 0C16.8871 0 14.3101 3.21864 12.732 8.24345C11.793 8.02477 10.8742 7.83717 9.99533 7.71833C5.59372 7.11206 2.51064 7.86824 1.29193 9.84331C-0.219743 12.2995 1.54485 16.087 5.52709 19.9497C4.7346 20.7308 4.03535 21.5121 3.42956 22.2872C3.1699 22.2061 2.89676 22.1497 2.61039 22.1497C1.17202 22.1497 0 23.2498 0 24.5998C0 25.4311 0.446047 26.1686 1.1254 26.6123C0.832324 27.8562 0.952194 28.9372 1.50492 29.8309C2.44393 31.3622 4.51477 32.1558 7.44458 32.1558C8.29679 32.1558 9.21586 32.087 10.2079 31.9558C10.9937 31.8496 11.8195 31.6871 12.6519 31.4995C14.2166 36.6687 16.8401 40 19.8634 40C22.88 40 25.4968 36.6812 27.0683 31.5186C28.9527 31.9436 30.6973 32.1686 32.2357 32.1686C35.0989 32.1686 37.2366 31.4124 38.2019 29.8437C38.7013 29.0312 38.8546 28.0623 38.6547 26.9626C39.4537 26.5373 40 25.7501 40 24.831L40 24.8314ZM37.5628 10.2818C38.8212 12.3319 37.0901 15.7442 33.461 19.2692C31.9959 17.9068 30.2779 16.5631 28.3804 15.2881C28.1538 13.088 27.7679 11.0068 27.235 9.12554C32.2954 7.93774 36.3042 8.23784 37.563 10.2817L37.5628 10.2818ZM23.8453 26.1566C22.5136 26.8817 21.1685 27.5254 19.8368 28.1066C18.5182 27.5317 17.1798 26.8877 15.8481 26.1629C14.5897 25.4815 13.3842 24.7567 12.2525 24.0192C12.1391 22.7192 12.0725 21.3754 12.0725 20.0003C12.0725 18.5504 12.1458 17.1316 12.2788 15.7565C13.4775 14.969 14.7427 14.2064 16.0612 13.494C17.3263 12.8126 18.5915 12.194 19.8435 11.6441C21.1087 12.2003 22.3806 12.8253 23.639 13.5066C24.9707 14.2254 26.2494 14.9942 27.448 15.7878C27.5746 17.1566 27.6412 18.5628 27.6412 20.0004C27.6412 21.3692 27.5746 22.7005 27.4615 23.9942C26.3291 24.7441 25.1172 25.4692 23.8453 26.1566H23.8453ZM27.3411 25.1941C27.1213 27.044 26.7816 28.788 26.3554 30.3755C24.6574 29.9441 22.8594 29.3442 21.0151 28.6004C22.1206 28.0942 23.2325 27.5504 24.338 26.9505C25.3833 26.3816 26.3824 25.7944 27.3411 25.1941ZM18.6651 28.6067C16.854 29.3442 15.0695 29.9381 13.3714 30.3755C12.9453 28.7943 12.6057 27.063 12.3858 25.2192C13.338 25.8131 14.3303 26.3943 15.369 26.9565C16.4741 27.5631 17.5796 28.1066 18.6651 28.6067ZM11.2139 23.3192C9.6158 22.2128 8.17068 21.063 6.91893 19.9193C8.17735 18.7505 9.63566 17.5881 11.2337 16.4756C11.1473 17.6194 11.1007 18.7945 11.1007 20.0068C11.1004 21.1318 11.1405 22.2443 11.2138 23.3193L11.2139 23.3192ZM12.4125 14.5631C12.6455 12.7005 12.9983 10.9505 13.4447 9.36302C15.1292 9.81305 16.8941 10.413 18.6786 11.1444C17.6531 11.6195 16.6142 12.1383 15.5756 12.7008C14.4833 13.2942 13.4244 13.9191 12.4124 14.5631H12.4125ZM20.9958 11.1565C22.8205 10.4064 24.6117 9.80646 26.2963 9.36273C26.7491 10.9752 27.0955 12.7376 27.3217 14.6002C26.2963 13.9502 25.2309 13.3189 24.1254 12.719C23.0933 12.1504 22.0411 11.6379 20.9957 11.1565H20.9958ZM28.4937 16.4941C30.085 17.6005 31.5234 18.7566 32.7755 19.9191C31.5302 21.0565 30.0986 22.1943 28.5136 23.3003C28.5869 22.2316 28.6268 21.1316 28.6268 20.0065C28.6271 18.813 28.5805 17.6379 28.4937 16.494L28.4937 16.4941ZM25.464 3.09436C25.464 3.938 24.7316 4.6257 23.8325 4.6257C22.9336 4.6257 22.201 3.9383 22.201 3.09436C22.201 2.25071 22.9333 1.56301 23.8325 1.56301C24.7316 1.56301 25.464 2.2507 25.464 3.09436ZM19.8641 0.919354C20.5167 0.919354 21.1691 1.14437 21.815 1.56936C21.4554 1.98802 21.2292 2.51944 21.2292 3.10071C21.2292 4.45077 22.4012 5.55083 23.8396 5.55083C24.186 5.55083 24.5121 5.48206 24.8117 5.36956C25.2712 6.30071 25.6774 7.33197 26.037 8.45097C24.0793 8.96976 21.9885 9.70093 19.8377 10.6323C17.7469 9.73223 15.6894 9.00718 13.7114 8.48227C15.1428 3.91931 17.3935 0.91945 19.8641 0.91945L19.8641 0.919354ZM2.13787 10.3009C3.12349 8.70073 5.93338 8.08846 9.85556 8.62596C10.6946 8.73847 11.5736 8.91975 12.4724 9.12606C11.9531 10.9759 11.5668 13.0448 11.3402 15.2699C9.43585 16.5512 7.70443 17.9073 6.23294 19.2761C2.61063 15.7571 0.879129 12.3447 2.13787 10.3012V10.3009ZM2.60384 23.0635C3.50267 23.0635 4.23535 23.7509 4.23535 24.5948C4.23535 25.4385 3.50298 26.1262 2.60384 26.1262C1.70501 26.1262 0.972324 25.4387 0.972324 24.5948C0.972324 23.7512 1.705 23.0635 2.60384 23.0635ZM10.0618 31.0388C6.14641 31.5763 3.32978 30.9637 2.34415 29.3639C1.9447 28.7202 1.84476 27.92 2.03115 26.9825C2.21754 27.02 2.40393 27.045 2.60381 27.045C4.04218 27.045 5.2142 25.9449 5.2142 24.5949C5.2142 23.8447 4.84786 23.1823 4.28194 22.7323C4.84785 22.0199 5.48731 21.3011 6.21293 20.5886C7.67124 21.92 9.38924 23.2511 11.3135 24.5261C11.5265 26.7134 11.8929 28.7572 12.3923 30.5948C11.5933 30.7824 10.8141 30.9387 10.0618 31.0388L10.0618 31.0388ZM19.864 39.0826C17.3468 39.0826 15.0561 35.9701 13.6245 31.2576C15.6156 30.7451 17.7064 30.02 19.8238 29.1199C22.0013 30.0511 24.112 30.7761 26.0899 31.2825C24.6583 35.9825 22.3808 39.0825 19.864 39.0825V39.0826ZM37.3563 29.3829C36.1246 31.3893 32.2422 31.7141 27.3282 30.6078C27.8275 28.764 28.1939 26.7078 28.4069 24.5014C30.3248 23.2327 32.0292 21.9077 33.4744 20.5827C34.3 21.3953 35.0259 22.2139 35.6384 23.0202C35.1123 23.4702 34.7794 24.1075 34.7794 24.8263C34.7794 26.1764 35.9514 27.2765 37.3898 27.2765C37.4965 27.2765 37.6029 27.2578 37.7028 27.2451C37.8227 28.0767 37.716 28.7954 37.3564 29.383L37.3563 29.3829ZM38.0022 26.2514C37.9955 26.2514 37.9955 26.2514 38.0022 26.2514C37.9955 26.2514 37.9955 26.2514 38.0022 26.2514C37.8091 26.3202 37.6092 26.3639 37.3897 26.3639C36.4909 26.3639 35.7582 25.6765 35.7582 24.8325C35.7582 23.9889 36.4906 23.3012 37.3897 23.3012C38.2885 23.3012 39.0212 23.9886 39.0212 24.8325C39.0212 25.4765 38.5948 26.0264 38.0022 26.2514L38.0022 26.2514Z" fill="#EEEEEE"/>
</svg>
