<svg width="20" height="20" viewBox="0 0 20 20" fill="none" xmlns="http://www.w3.org/2000/svg">
<path d="M10 8.2611L12.8389 5.40554C12.8903 5.35375 12.9311 5.29232 12.9588 5.22478C12.9865 5.15724 13.0006 5.08491 13.0003 5.01191C13.0001 4.93892 12.9854 4.86669 12.9573 4.79934C12.9291 4.732 12.8879 4.67087 12.8361 4.61943C12.7843 4.568 12.7229 4.52727 12.6554 4.49957C12.5878 4.47188 12.5155 4.45776 12.4425 4.45801C12.3695 4.45827 12.2973 4.4729 12.2299 4.50108C12.1626 4.52925 12.1014 4.57041 12.05 4.62221L10.5556 6.1111V1.84999C10.5556 1.70265 10.497 1.56134 10.3928 1.45715C10.2887 1.35297 10.1474 1.29443 10 1.29443C9.85267 1.29443 9.71136 1.35297 9.60717 1.45715C9.50298 1.56134 9.44445 1.70265 9.44445 1.84999V6.1111L7.95001 4.62221C7.89857 4.57041 7.83744 4.52925 7.7701 4.50108C7.70276 4.4729 7.63052 4.45827 7.55753 4.45801C7.48453 4.45776 7.4122 4.47188 7.34466 4.49957C7.27712 4.52727 7.2157 4.568 7.1639 4.61943C7.1121 4.67087 7.07094 4.732 7.04276 4.79934C7.01459 4.86669 6.99996 4.93892 6.9997 5.01191C6.99944 5.08491 7.01356 5.15724 7.04126 5.22478C7.06896 5.29232 7.10968 5.35375 7.16112 5.40554L10 8.2611Z" fill="white"/>
<path d="M10 11.7389L7.16112 14.5944C7.05724 14.6991 6.99918 14.8407 6.9997 14.9881C7.00022 15.1355 7.05928 15.2767 7.1639 15.3806C7.26851 15.4844 7.4101 15.5425 7.55753 15.542C7.70495 15.5415 7.84613 15.4824 7.95001 15.3778L9.44445 13.8889V18.1611C9.44445 18.3085 9.50298 18.4498 9.60717 18.554C9.71136 18.6581 9.85266 18.7167 10 18.7167C10.1473 18.7167 10.2887 18.6581 10.3928 18.554C10.497 18.4498 10.5556 18.3085 10.5556 18.1611V13.8889L12.05 15.3944C12.1539 15.4991 12.2951 15.5581 12.4425 15.5586C12.5899 15.5592 12.7315 15.5011 12.8361 15.3972C12.9407 15.2933 12.9998 15.1522 13.0003 15.0047C13.0008 14.8573 12.9428 14.7157 12.8389 14.6111L10 11.7389Z" fill="white"/>
<path d="M16.0278 7.16106C15.9232 7.05718 15.7816 6.99912 15.6342 6.99964C15.4867 7.00016 15.3456 7.05922 15.2417 7.16384C15.1378 7.26845 15.0797 7.41004 15.0803 7.55747C15.0808 7.70489 15.1399 7.84607 15.2445 7.94995L16.75 9.44439H12.4778C12.3305 9.44439 12.1891 9.50292 12.085 9.60711C11.9808 9.7113 11.9222 9.8526 11.9222 9.99995C11.9222 10.1473 11.9808 10.2886 12.085 10.3928C12.1891 10.497 12.3305 10.5555 12.4778 10.5555H16.75L15.2445 12.0499C15.1399 12.1538 15.0808 12.295 15.0803 12.4424C15.0797 12.5899 15.1378 12.7314 15.2417 12.8361C15.3456 12.9407 15.4867 12.9997 15.6342 13.0003C15.7816 13.0008 15.9232 12.9427 16.0278 12.8388L18.8889 9.99995L16.0278 7.16106Z" fill="white"/>
<path d="M3.24997 10.5555H7.5222C7.66954 10.5555 7.81085 10.497 7.91503 10.3928C8.01922 10.2886 8.07775 10.1473 8.07775 9.99995C8.07775 9.8526 8.01922 9.7113 7.91503 9.60711C7.81085 9.50292 7.66954 9.44439 7.5222 9.44439H3.24997L4.75553 7.94995C4.80733 7.89851 4.84849 7.83738 4.87666 7.77004C4.90483 7.70269 4.91947 7.63046 4.91973 7.55747C4.91998 7.48447 4.90586 7.41214 4.87817 7.3446C4.85047 7.27706 4.80974 7.21563 4.75831 7.16384C4.70687 7.11204 4.64574 7.07088 4.5784 7.0427C4.51105 7.01453 4.43882 6.9999 4.36583 6.99964C4.29283 6.99938 4.2205 7.0135 4.15296 7.0412C4.08542 7.06889 4.02399 7.10962 3.9722 7.16106L1.11108 9.99995L3.96664 12.8388C4.01844 12.8903 4.07986 12.931 4.1474 12.9587C4.21494 12.9864 4.28727 13.0005 4.36027 13.0003C4.43327 13 4.5055 12.9854 4.57284 12.9572C4.64018 12.929 4.70132 12.8879 4.75275 12.8361C4.80419 12.7843 4.84491 12.7228 4.87261 12.6553C4.90031 12.5878 4.91443 12.5154 4.91417 12.4424C4.91391 12.3694 4.89928 12.2972 4.87111 12.2299C4.84293 12.1625 4.80177 12.1014 4.74997 12.0499L3.24997 10.5555Z" fill="white"/>
</svg>
