<svg width="20" height="20" viewBox="0 0 20 20" fill="none" xmlns="http://www.w3.org/2000/svg">
<path d="M17.2222 4.44446H12.7778V5.55557H17.2222V17.2222H12.7778V18.3333H18.3333V5.55557C18.3333 5.26088 18.2163 4.97827 18.0079 4.7699C17.7995 4.56152 17.5169 4.44446 17.2222 4.44446Z" fill="white"/>
<path d="M11.0445 1.66663H3.40001C3.08764 1.66663 2.78807 1.79071 2.56719 2.01159C2.34632 2.23247 2.22223 2.53204 2.22223 2.8444V18.3333H12.2222V2.8444C12.2222 2.53204 12.0981 2.23247 11.8773 2.01159C11.6564 1.79071 11.3568 1.66663 11.0445 1.66663ZM11.1111 17.2222H9.44445V15.5555H5.00001V17.2222H3.33334V2.8444C3.33334 2.83565 3.33506 2.82698 3.33841 2.81889C3.34177 2.8108 3.34668 2.80345 3.35287 2.79726C3.35906 2.79107 3.36641 2.78616 3.37449 2.78281C3.38258 2.77946 3.39125 2.77774 3.40001 2.77774H11.0445C11.0532 2.77774 11.0619 2.77946 11.07 2.78281C11.0781 2.78616 11.0854 2.79107 11.0916 2.79726C11.0978 2.80345 11.1027 2.8108 11.106 2.81889C11.1094 2.82698 11.1111 2.83565 11.1111 2.8444V17.2222Z" fill="white"/>
<path d="M4.44446 4.44446H5.55557V5.55557H4.44446V4.44446Z" fill="white"/>
<path d="M6.66669 4.44446H7.7778V5.55557H6.66669V4.44446Z" fill="white"/>
<path d="M8.88892 4.44446H10V5.55557H8.88892V4.44446Z" fill="white"/>
<path d="M4.44446 7.22217H5.55557V8.33328H4.44446V7.22217Z" fill="white"/>
<path d="M6.66669 7.22217H7.7778V8.33328H6.66669V7.22217Z" fill="white"/>
<path d="M8.88892 7.22217H10V8.33328H8.88892V7.22217Z" fill="white"/>
<path d="M4.44446 10H5.55557V11.1111H4.44446V10Z" fill="white"/>
<path d="M6.66669 10H7.7778V11.1111H6.66669V10Z" fill="white"/>
<path d="M8.88892 10H10V11.1111H8.88892V10Z" fill="white"/>
<path d="M4.44446 12.7778H5.55557V13.8889H4.44446V12.7778Z" fill="white"/>
<path d="M6.66669 12.7778H7.7778V13.8889H6.66669V12.7778Z" fill="white"/>
<path d="M8.88892 12.7778H10V13.8889H8.88892V12.7778Z" fill="white"/>
<path d="M12.7778 7.22217H13.8889V8.33328H12.7778V7.22217Z" fill="white"/>
<path d="M15 7.22217H16.1111V8.33328H15V7.22217Z" fill="white"/>
<path d="M12.7778 10H13.8889V11.1111H12.7778V10Z" fill="white"/>
<path d="M15 10H16.1111V11.1111H15V10Z" fill="white"/>
<path d="M12.7778 12.7778H13.8889V13.8889H12.7778V12.7778Z" fill="white"/>
<path d="M15 12.7778H16.1111V13.8889H15V12.7778Z" fill="white"/>
</svg>
