<svg width="20" height="15" viewBox="0 0 20 15" fill="none" xmlns="http://www.w3.org/2000/svg">
<path d="M7.14668 14.46L0.19334 7.51335C0.0841224 7.38581 0.0270517 7.22176 0.0335325 7.05398C0.0400132 6.88619 0.109568 6.72703 0.228298 6.6083C0.347028 6.48957 0.506187 6.42002 0.673971 6.41354C0.841755 6.40706 1.00581 6.46413 1.13334 6.57335L7.13334 12.5733L18.86 0.860012C18.9875 0.750794 19.1516 0.693723 19.3194 0.700204C19.4872 0.706685 19.6463 0.77624 19.7651 0.89497C19.8838 1.0137 19.9533 1.17286 19.9598 1.34064C19.9663 1.50843 19.9092 1.67248 19.8 1.80001L7.14668 14.46Z" fill="white"/>
</svg>
