<svg width="32" height="32" viewBox="0 0 32 32" fill="none" xmlns="http://www.w3.org/2000/svg">
<path d="M10.6667 8.00002C10.6667 8.35364 10.5262 8.69278 10.2761 8.94283C10.0261 9.19288 9.68696 9.33335 9.33333 9.33335C8.97971 9.33335 8.64057 9.19288 8.39052 8.94283C8.14048 8.69278 8 8.35364 8 8.00002C8 7.6464 8.14048 7.30726 8.39052 7.05721C8.64057 6.80716 8.97971 6.66669 9.33333 6.66669C9.68696 6.66669 10.0261 6.80716 10.2761 7.05721C10.5262 7.30726 10.6667 7.6464 10.6667 8.00002ZM9.33333 13.3334C9.68696 13.3334 10.0261 13.1929 10.2761 12.9428C10.5262 12.6928 10.6667 12.3536 10.6667 12C10.6667 11.6464 10.5262 11.3073 10.2761 11.0572C10.0261 10.8072 9.68696 10.6667 9.33333 10.6667C8.97971 10.6667 8.64057 10.8072 8.39052 11.0572C8.14048 11.3073 8 11.6464 8 12C8 12.3536 8.14048 12.6928 8.39052 12.9428C8.64057 13.1929 8.97971 13.3334 9.33333 13.3334ZM10.6667 16C10.6667 16.3536 10.5262 16.6928 10.2761 16.9428C10.0261 17.1929 9.68696 17.3334 9.33333 17.3334C8.97971 17.3334 8.64057 17.1929 8.39052 16.9428C8.14048 16.6928 8 16.3536 8 16C8 15.6464 8.14048 15.3073 8.39052 15.0572C8.64057 14.8072 8.97971 14.6667 9.33333 14.6667C9.68696 14.6667 10.0261 14.8072 10.2761 15.0572C10.5262 15.3073 10.6667 15.6464 10.6667 16ZM10.6667 20C10.6667 20.3536 10.5262 20.6928 10.2761 20.9428C10.0261 21.1929 9.68696 21.3334 9.33333 21.3334C8.97971 21.3334 8.64057 21.1929 8.39052 20.9428C8.14048 20.6928 8 20.3536 8 20C8 19.6464 8.14048 19.3073 8.39052 19.0572C8.64057 18.8072 8.97971 18.6667 9.33333 18.6667C9.68696 18.6667 10.0261 18.8072 10.2761 19.0572C10.5262 19.3073 10.6667 19.6464 10.6667 20ZM9.33333 25.3334C9.68696 25.3334 10.0261 25.1929 10.2761 24.9428C10.5262 24.6928 10.6667 24.3536 10.6667 24C10.6667 23.6464 10.5262 23.3073 10.2761 23.0572C10.0261 22.8072 9.68696 22.6667 9.33333 22.6667C8.97971 22.6667 8.64057 22.8072 8.39052 23.0572C8.14048 23.3073 8 23.6464 8 24C8 24.3536 8.14048 24.6928 8.39052 24.9428C8.64057 25.1929 8.97971 25.3334 9.33333 25.3334ZM18.6667 21.3334C19.0203 21.3334 19.3594 21.1929 19.6095 20.9428C19.8595 20.6928 20 20.3536 20 20C20 19.6464 19.8595 19.3073 19.6095 19.0572C19.3594 18.8072 19.0203 18.6667 18.6667 18.6667C18.313 18.6667 17.9739 18.8072 17.7239 19.0572C17.4738 19.3073 17.3333 19.6464 17.3333 20C17.3333 20.3536 17.4738 20.6928 17.7239 20.9428C17.9739 21.1929 18.313 21.3334 18.6667 21.3334ZM22.6667 21.3334C23.0203 21.3334 23.3594 21.1929 23.6095 20.9428C23.8595 20.6928 24 20.3536 24 20C24 19.6464 23.8595 19.3073 23.6095 19.0572C23.3594 18.8072 23.0203 18.6667 22.6667 18.6667C22.313 18.6667 21.9739 18.8072 21.7239 19.0572C21.4738 19.3073 21.3333 19.6464 21.3333 20C21.3333 20.3536 21.4738 20.6928 21.7239 20.9428C21.9739 21.1929 22.313 21.3334 22.6667 21.3334ZM22.6667 17.3334C23.0203 17.3334 23.3594 17.1929 23.6095 16.9428C23.8595 16.6928 24 16.3536 24 16C24 15.6464 23.8595 15.3073 23.6095 15.0572C23.3594 14.8072 23.0203 14.6667 22.6667 14.6667C22.313 14.6667 21.9739 14.8072 21.7239 15.0572C21.4738 15.3073 21.3333 15.6464 21.3333 16C21.3333 16.3536 21.4738 16.6928 21.7239 16.9428C21.9739 17.1929 22.313 17.3334 22.6667 17.3334ZM20 16C20 16.3536 19.8595 16.6928 19.6095 16.9428C19.3594 17.1929 19.0203 17.3334 18.6667 17.3334C18.313 17.3334 17.9739 17.1929 17.7239 16.9428C17.4738 16.6928 17.3333 16.3536 17.3333 16C17.3333 15.6464 17.4738 15.3073 17.7239 15.0572C17.9739 14.8072 18.313 14.6667 18.6667 14.6667C19.0203 14.6667 19.3594 14.8072 19.6095 15.0572C19.8595 15.3073 20 15.6464 20 16ZM22.6667 13.3334C23.0203 13.3334 23.3594 13.1929 23.6095 12.9428C23.8595 12.6928 24 12.3536 24 12C24 11.6464 23.8595 11.3073 23.6095 11.0572C23.3594 10.8072 23.0203 10.6667 22.6667 10.6667C22.313 10.6667 21.9739 10.8072 21.7239 11.0572C21.4738 11.3073 21.3333 11.6464 21.3333 12C21.3333 12.3536 21.4738 12.6928 21.7239 12.9428C21.9739 13.1929 22.313 13.3334 22.6667 13.3334ZM20 12C20 12.3536 19.8595 12.6928 19.6095 12.9428C19.3594 13.1929 19.0203 13.3334 18.6667 13.3334C18.313 13.3334 17.9739 13.1929 17.7239 12.9428C17.4738 12.6928 17.3333 12.3536 17.3333 12C17.3333 11.6464 17.4738 11.3073 17.7239 11.0572C17.9739 10.8072 18.313 10.6667 18.6667 10.6667C19.0203 10.6667 19.3594 10.8072 19.6095 11.0572C19.8595 11.3073 20 11.6464 20 12ZM18.6667 6.66669V5.66669C18.6667 4.87104 18.3506 4.10798 17.788 3.54537C17.2254 2.98276 16.4623 2.66669 15.6667 2.66669H7C6.20435 2.66669 5.44129 2.98276 4.87868 3.54537C4.31607 4.10798 4 4.87104 4 5.66669V27.6667C4 28.2187 4.448 28.6667 5 28.6667H27C27.2652 28.6667 27.5196 28.5613 27.7071 28.3738C27.8946 28.1863 28 27.9319 28 27.6667V9.66669C28 8.87104 27.6839 8.10798 27.1213 7.54537C26.5587 6.98276 25.7957 6.66669 25 6.66669H18.6667ZM6 5.66669C6 5.40147 6.10536 5.14712 6.29289 4.95958C6.48043 4.77204 6.73478 4.66669 7 4.66669H15.6667C15.9319 4.66669 16.1862 4.77204 16.3738 4.95958C16.5613 5.14712 16.6667 5.40147 16.6667 5.66669V6.66669H16.3333C15.5377 6.66669 14.7746 6.98276 14.212 7.54537C13.6494 8.10798 13.3333 8.87104 13.3333 9.66669V26.6667H6V5.66669ZM19.3333 26.6667V24.6667H22V26.6667H19.3333ZM24 23.6667C24 23.4015 23.8946 23.1471 23.7071 22.9596C23.5196 22.772 23.2652 22.6667 23 22.6667H18.3333C18.0681 22.6667 17.8138 22.772 17.6262 22.9596C17.4387 23.1471 17.3333 23.4015 17.3333 23.6667V26.6667H15.3333V9.66669C15.3333 9.40147 15.4387 9.14712 15.6262 8.95958C15.8138 8.77204 16.0681 8.66669 16.3333 8.66669H25C25.2652 8.66669 25.5196 8.77204 25.7071 8.95958C25.8946 9.14712 26 9.40147 26 9.66669V26.6667H24V23.6667Z" fill="white"/>
</svg>
