<svg width="32" height="32" viewBox="0 0 32 32" fill="none" xmlns="http://www.w3.org/2000/svg">
<path d="M12 19.8893V20.6667C12 22.258 12.6321 23.7841 13.7574 24.9093C14.8826 26.0345 16.4087 26.6667 18 26.6667C19.5913 26.6667 21.1174 26.0345 22.2426 24.9093C23.3679 23.7841 24 22.258 24 20.6667V18.44C23.11 18.1254 22.3599 17.5064 21.8822 16.6922C21.4045 15.8781 21.23 14.9213 21.3896 13.9909C21.5492 13.0606 22.0325 12.2166 22.7542 11.6082C23.4759 10.9997 24.3894 10.666 25.3333 10.666C26.2773 10.666 27.1908 10.9997 27.9125 11.6082C28.6342 12.2166 29.1175 13.0606 29.2771 13.9909C29.4367 14.9213 29.2622 15.8781 28.7845 16.6922C28.3068 17.5064 27.5567 18.1254 26.6667 18.44V20.6667C26.6667 22.9652 25.7536 25.1696 24.1283 26.7949C22.5029 28.4202 20.2985 29.3333 18 29.3333C15.7015 29.3333 13.4971 28.4202 11.8717 26.7949C10.2464 25.1696 9.33334 22.9652 9.33334 20.6667V19.8893C7.46924 19.5737 5.77709 18.6083 4.5568 17.1642C3.33652 15.7201 2.66691 13.8906 2.66667 12L2.66667 5.33332C2.66667 4.62608 2.94762 3.9478 3.44772 3.44771C3.94782 2.94761 4.62609 2.66666 5.33334 2.66666H6.66667C7.02029 2.66666 7.35943 2.80713 7.60948 3.05718C7.85953 3.30723 8.00001 3.64637 8.00001 3.99999C8.00001 4.35361 7.85953 4.69275 7.60948 4.9428C7.35943 5.19285 7.02029 5.33332 6.66667 5.33332H5.33334V12C5.33334 13.4145 5.89524 14.771 6.89544 15.7712C7.89563 16.7714 9.25218 17.3333 10.6667 17.3333C12.0812 17.3333 13.4377 16.7714 14.4379 15.7712C15.4381 14.771 16 13.4145 16 12V5.33332H14.6667C14.3131 5.33332 13.9739 5.19285 13.7239 4.9428C13.4738 4.69275 13.3333 4.35361 13.3333 3.99999C13.3333 3.64637 13.4738 3.30723 13.7239 3.05718C13.9739 2.80713 14.3131 2.66666 14.6667 2.66666H16C16.7072 2.66666 17.3855 2.94761 17.8856 3.44771C18.3857 3.9478 18.6667 4.62608 18.6667 5.33332V12C18.6664 13.8906 17.9968 15.7201 16.7765 17.1642C15.5563 18.6083 13.8641 19.5737 12 19.8893ZM25.3333 16C25.687 16 26.0261 15.8595 26.2761 15.6095C26.5262 15.3594 26.6667 15.0203 26.6667 14.6667C26.6667 14.313 26.5262 13.9739 26.2761 13.7238C26.0261 13.4738 25.687 13.3333 25.3333 13.3333C24.9797 13.3333 24.6406 13.4738 24.3905 13.7238C24.1405 13.9739 24 14.313 24 14.6667C24 15.0203 24.1405 15.3594 24.3905 15.6095C24.6406 15.8595 24.9797 16 25.3333 16Z" fill="white"/>
</svg>
