<svg width="32" height="32" viewBox="0 0 32 32" fill="none" xmlns="http://www.w3.org/2000/svg">
<path d="M28.2934 16C28.9571 15.2698 29.3275 14.3201 29.3334 13.3333C29.3334 12.2725 28.9119 11.2551 28.1618 10.5049C27.4116 9.75476 26.3942 9.33333 25.3334 9.33333H18.4267C18.6397 8.7309 18.7053 8.08621 18.6179 7.45324C18.5306 6.82026 18.2929 6.21742 17.9247 5.69518C17.5565 5.17294 17.0686 4.7465 16.5017 4.45157C15.9349 4.15664 15.3057 4.00179 14.6667 4H6.66669C5.60582 4 4.58841 4.42143 3.83826 5.17157C3.08811 5.92172 2.66669 6.93913 2.66669 8C2.67257 8.98674 3.04297 9.93648 3.70669 10.6667C3.05075 11.4 2.68811 12.3494 2.68811 13.3333C2.68811 14.3172 3.05075 15.2666 3.70669 16C3.05075 16.7334 2.68811 17.6828 2.68811 18.6667C2.68811 19.6506 3.05075 20.6 3.70669 21.3333C3.04297 22.0635 2.67257 23.0133 2.66669 24C2.66669 25.0609 3.08811 26.0783 3.83826 26.8284C4.58841 27.5786 5.60582 28 6.66669 28H25.3334C26.1037 27.9959 26.8565 27.7694 27.5012 27.3478C28.1459 26.9262 28.6552 26.3273 28.9678 25.6233C29.2804 24.9192 29.3831 24.1398 29.2634 23.3788C29.1438 22.6178 28.8069 21.9075 28.2934 21.3333C28.9493 20.6 29.3119 19.6506 29.3119 18.6667C29.3119 17.6828 28.9493 16.7334 28.2934 16ZM14.6667 25.3333H6.66669C6.31307 25.3333 5.97393 25.1929 5.72388 24.9428C5.47383 24.6928 5.33335 24.3536 5.33335 24C5.33335 23.6464 5.47383 23.3072 5.72388 23.0572C5.97393 22.8071 6.31307 22.6667 6.66669 22.6667H14.6667C15.0203 22.6667 15.3594 22.8071 15.6095 23.0572C15.8595 23.3072 16 23.6464 16 24C16 24.3536 15.8595 24.6928 15.6095 24.9428C15.3594 25.1929 15.0203 25.3333 14.6667 25.3333ZM14.6667 20H6.66669C6.31307 20 5.97393 19.8595 5.72388 19.6095C5.47383 19.3594 5.33335 19.0203 5.33335 18.6667C5.33335 18.313 5.47383 17.9739 5.72388 17.7239C5.97393 17.4738 6.31307 17.3333 6.66669 17.3333H14.6667C15.0203 17.3333 15.3594 17.4738 15.6095 17.7239C15.8595 17.9739 16 18.313 16 18.6667C16 19.0203 15.8595 19.3594 15.6095 19.6095C15.3594 19.8595 15.0203 20 14.6667 20ZM14.6667 14.6667H6.66669C6.31307 14.6667 5.97393 14.5262 5.72388 14.2761C5.47383 14.0261 5.33335 13.687 5.33335 13.3333C5.33335 12.9797 5.47383 12.6406 5.72388 12.3905C5.97393 12.1405 6.31307 12 6.66669 12H14.6667C15.0203 12 15.3594 12.1405 15.6095 12.3905C15.8595 12.6406 16 12.9797 16 13.3333C16 13.687 15.8595 14.0261 15.6095 14.2761C15.3594 14.5262 15.0203 14.6667 14.6667 14.6667ZM14.6667 9.33333H6.66669C6.31307 9.33333 5.97393 9.19286 5.72388 8.94281C5.47383 8.69276 5.33335 8.35362 5.33335 8C5.33335 7.64638 5.47383 7.30724 5.72388 7.05719C5.97393 6.80714 6.31307 6.66667 6.66669 6.66667H14.6667C15.0203 6.66667 15.3594 6.80714 15.6095 7.05719C15.8595 7.30724 16 7.64638 16 8C16 8.35362 15.8595 8.69276 15.6095 8.94281C15.3594 9.19286 15.0203 9.33333 14.6667 9.33333ZM26.2534 24.9467C26.1352 25.0713 25.9923 25.1701 25.834 25.2366C25.6756 25.3032 25.5051 25.3361 25.3334 25.3333H18.4267C18.7464 24.4732 18.7464 23.5268 18.4267 22.6667H25.3334C25.687 22.6667 26.0261 22.8071 26.2762 23.0572C26.5262 23.3072 26.6667 23.6464 26.6667 24C26.6642 24.1774 26.6264 24.3524 26.5554 24.515C26.4844 24.6775 26.3818 24.8243 26.2534 24.9467ZM26.2534 19.6133C26.1352 19.738 25.9923 19.8367 25.834 19.9033C25.6756 19.9699 25.5051 20.0028 25.3334 20H18.4267C18.7464 19.1399 18.7464 18.1935 18.4267 17.3333H25.3334C25.687 17.3333 26.0261 17.4738 26.2762 17.7239C26.5262 17.9739 26.6667 18.313 26.6667 18.6667C26.6642 18.844 26.6264 19.0191 26.5554 19.1817C26.4844 19.3442 26.3818 19.491 26.2534 19.6133ZM26.2534 14.28C26.1352 14.4047 25.9923 14.5034 25.834 14.57C25.6756 14.6365 25.5051 14.6695 25.3334 14.6667H18.4267C18.7464 13.8065 18.7464 12.8601 18.4267 12H25.3334C25.687 12 26.0261 12.1405 26.2762 12.3905C26.5262 12.6406 26.6667 12.9797 26.6667 13.3333C26.6642 13.5107 26.6264 13.6858 26.5554 13.8483C26.4844 14.0109 26.3818 14.1576 26.2534 14.28Z" fill="white"/>
</svg>
