<svg width="28" height="24" viewBox="0 0 28 24" fill="none" xmlns="http://www.w3.org/2000/svg">
<path d="M26.2933 12C26.9571 11.2698 27.3275 10.3201 27.3333 9.33333C27.3333 8.27247 26.9119 7.25505 26.1618 6.50491C25.4116 5.75476 24.3942 5.33333 23.3333 5.33333H16.4267C16.6397 4.7309 16.7052 4.08621 16.6179 3.45324C16.5306 2.82026 16.2928 2.21742 15.9247 1.69518C15.5565 1.17294 15.0686 0.746503 14.5017 0.451571C13.9349 0.156639 13.3056 0.00179402 12.6667 0H4.66667C3.60581 0 2.58839 0.421427 1.83824 1.17157C1.0881 1.92172 0.666672 2.93913 0.666672 4C0.672553 4.98674 1.04295 5.93648 1.70667 6.66667C1.05073 7.40003 0.688096 8.34942 0.688096 9.33333C0.688096 10.3172 1.05073 11.2666 1.70667 12C1.05073 12.7334 0.688096 13.6828 0.688096 14.6667C0.688096 15.6506 1.05073 16.6 1.70667 17.3333C1.04295 18.0635 0.672553 19.0133 0.666672 20C0.666672 21.0609 1.0881 22.0783 1.83824 22.8284C2.58839 23.5786 3.60581 24 4.66667 24H23.3333C24.1037 23.9959 24.8565 23.7694 25.5012 23.3478C26.1459 22.9262 26.6552 22.3273 26.9678 21.6233C27.2804 20.9192 27.3831 20.1398 27.2634 19.3788C27.1438 18.6178 26.8069 17.9075 26.2933 17.3333C26.9493 16.6 27.3119 15.6506 27.3119 14.6667C27.3119 13.6828 26.9493 12.7334 26.2933 12ZM12.6667 21.3333H4.66667C4.31305 21.3333 3.97391 21.1929 3.72386 20.9428C3.47381 20.6928 3.33334 20.3536 3.33334 20C3.33334 19.6464 3.47381 19.3072 3.72386 19.0572C3.97391 18.8071 4.31305 18.6667 4.66667 18.6667H12.6667C13.0203 18.6667 13.3594 18.8071 13.6095 19.0572C13.8595 19.3072 14 19.6464 14 20C14 20.3536 13.8595 20.6928 13.6095 20.9428C13.3594 21.1929 13.0203 21.3333 12.6667 21.3333ZM12.6667 16H4.66667C4.31305 16 3.97391 15.8595 3.72386 15.6095C3.47381 15.3594 3.33334 15.0203 3.33334 14.6667C3.33334 14.313 3.47381 13.9739 3.72386 13.7239C3.97391 13.4738 4.31305 13.3333 4.66667 13.3333H12.6667C13.0203 13.3333 13.3594 13.4738 13.6095 13.7239C13.8595 13.9739 14 14.313 14 14.6667C14 15.0203 13.8595 15.3594 13.6095 15.6095C13.3594 15.8595 13.0203 16 12.6667 16ZM12.6667 10.6667H4.66667C4.31305 10.6667 3.97391 10.5262 3.72386 10.2761C3.47381 10.0261 3.33334 9.68696 3.33334 9.33333C3.33334 8.97971 3.47381 8.64057 3.72386 8.39052C3.97391 8.14048 4.31305 8 4.66667 8H12.6667C13.0203 8 13.3594 8.14048 13.6095 8.39052C13.8595 8.64057 14 8.97971 14 9.33333C14 9.68696 13.8595 10.0261 13.6095 10.2761C13.3594 10.5262 13.0203 10.6667 12.6667 10.6667ZM12.6667 5.33333H4.66667C4.31305 5.33333 3.97391 5.19286 3.72386 4.94281C3.47381 4.69276 3.33334 4.35362 3.33334 4C3.33334 3.64638 3.47381 3.30724 3.72386 3.05719C3.97391 2.80714 4.31305 2.66667 4.66667 2.66667H12.6667C13.0203 2.66667 13.3594 2.80714 13.6095 3.05719C13.8595 3.30724 14 3.64638 14 4C14 4.35362 13.8595 4.69276 13.6095 4.94281C13.3594 5.19286 13.0203 5.33333 12.6667 5.33333ZM24.2533 20.9467C24.1351 21.0713 23.9923 21.1701 23.834 21.2366C23.6756 21.3032 23.5051 21.3361 23.3333 21.3333H16.4267C16.7464 20.4732 16.7464 19.5268 16.4267 18.6667H23.3333C23.687 18.6667 24.0261 18.8071 24.2761 19.0572C24.5262 19.3072 24.6667 19.6464 24.6667 20C24.6642 20.1774 24.6264 20.3524 24.5554 20.515C24.4844 20.6775 24.3817 20.8243 24.2533 20.9467ZM24.2533 15.6133C24.1351 15.738 23.9923 15.8367 23.834 15.9033C23.6756 15.9699 23.5051 16.0028 23.3333 16H16.4267C16.7464 15.1399 16.7464 14.1935 16.4267 13.3333H23.3333C23.687 13.3333 24.0261 13.4738 24.2761 13.7239C24.5262 13.9739 24.6667 14.313 24.6667 14.6667C24.6642 14.844 24.6264 15.0191 24.5554 15.1817C24.4844 15.3442 24.3817 15.491 24.2533 15.6133ZM24.2533 10.28C24.1351 10.4047 23.9923 10.5034 23.834 10.57C23.6756 10.6365 23.5051 10.6695 23.3333 10.6667H16.4267C16.7464 9.80653 16.7464 8.86014 16.4267 8H23.3333C23.687 8 24.0261 8.14048 24.2761 8.39052C24.5262 8.64057 24.6667 8.97971 24.6667 9.33333C24.6642 9.51069 24.6264 9.68577 24.5554 9.84832C24.4844 10.0109 24.3817 10.1576 24.2533 10.28Z" fill="white"/>
</svg>
