<svg width="32" height="32" viewBox="0 0 32 32" fill="none" xmlns="http://www.w3.org/2000/svg">
<path d="M10.6666 14.3466H9.89331C8.83798 14.3084 7.78607 14.4876 6.80287 14.8729C5.81966 15.2583 4.92614 15.8415 4.17775 16.5866L3.96442 16.8355V24.1955H7.59108V20.0177L8.07997 19.4666L8.30219 19.2088C9.45946 18.0199 10.9002 17.1451 12.4889 16.6666C11.6935 16.0614 11.0662 15.2627 10.6666 14.3466Z" fill="#0D47A1"/>
<path d="M27.8578 16.56C27.1094 15.8149 26.2159 15.2316 25.2327 14.8463C24.2495 14.461 23.1976 14.2818 22.1422 14.32C21.8186 14.3209 21.4952 14.3387 21.1733 14.3733C20.7663 15.2328 20.1562 15.9802 19.3956 16.5511C21.0915 17.0203 22.6279 17.9421 23.84 19.2177L24.0622 19.4666L24.5422 20.0177V24.2044H28.0445V16.8089L27.8578 16.56Z" fill="#0D47A1"/>
<path d="M9.8667 12.6132H10.1423C10.0142 11.5139 10.2071 10.401 10.6977 9.40888C11.1882 8.41675 11.9554 7.58782 12.9067 7.02213C12.5619 6.49533 12.0861 6.06711 11.5261 5.77942C10.966 5.49172 10.3409 5.3544 9.71179 5.38091C9.08273 5.40742 8.47133 5.59685 7.93747 5.93064C7.40361 6.26444 6.96559 6.73116 6.6663 7.28511C6.36701 7.83905 6.21672 8.46123 6.23013 9.09071C6.24355 9.72019 6.42022 10.3354 6.74284 10.8761C7.06545 11.4168 7.52296 11.8644 8.07056 12.1752C8.61816 12.4859 9.23707 12.6491 9.8667 12.6488V12.6132Z" fill="#0D47A1"/>
<path d="M21.7156 11.9466C21.7264 12.1509 21.7264 12.3556 21.7156 12.5599C21.8862 12.5869 22.0584 12.6018 22.2311 12.6043H22.4C23.0269 12.5709 23.6344 12.3757 24.1634 12.0378C24.6925 11.6999 25.125 11.2308 25.4189 10.6761C25.7128 10.1214 25.8581 9.50004 25.8406 8.87254C25.8231 8.24504 25.6434 7.63276 25.319 7.09532C24.9946 6.55787 24.5366 6.11358 23.9896 5.80569C23.4425 5.4978 22.825 5.33681 22.1973 5.33839C21.5696 5.33997 20.9529 5.50407 20.4074 5.8147C19.8619 6.12534 19.4061 6.57193 19.0845 7.111C19.889 7.63627 20.5505 8.35305 21.0097 9.19702C21.469 10.041 21.7115 10.9857 21.7156 11.9466Z" fill="#0D47A1"/>
<path d="M15.8845 15.9288C18.0789 15.9288 19.8578 14.1499 19.8578 11.9555C19.8578 9.7611 18.0789 7.98218 15.8845 7.98218C13.6901 7.98218 11.9111 9.7611 11.9111 11.9555C11.9111 14.1499 13.6901 15.9288 15.8845 15.9288Z" fill="#0D47A1"/>
<path d="M16.0978 18.0443C14.9369 17.9975 13.7786 18.1859 12.6925 18.5984C11.6063 19.0108 10.6149 19.6387 9.77776 20.4443L9.55554 20.6932V26.3199C9.55901 26.5032 9.59855 26.684 9.67191 26.852C9.74527 27.02 9.851 27.1719 9.98307 27.299C10.1151 27.4261 10.271 27.5259 10.4416 27.5928C10.6123 27.6597 10.7945 27.6923 10.9778 27.6888H21.1911C21.3744 27.6923 21.5566 27.6597 21.7272 27.5928C21.8979 27.5259 22.0537 27.4261 22.1858 27.299C22.3179 27.1719 22.4236 27.02 22.497 26.852C22.5703 26.684 22.6099 26.5032 22.6133 26.3199V20.711L22.4 20.4443C21.5683 19.6363 20.5803 19.0066 19.4966 18.5939C18.4129 18.1812 17.2563 17.9942 16.0978 18.0443Z" fill="#0D47A1"/>
</svg>
