<svg width="24" height="24" viewBox="0 0 24 24" fill="none" xmlns="http://www.w3.org/2000/svg">
<path d="M11.98 7.90011C12.4954 7.90011 12.9133 7.48225 12.9133 6.96678C12.9133 6.45131 12.4954 6.03345 11.98 6.03345C11.4645 6.03345 11.0466 6.45131 11.0466 6.96678C11.0466 7.48225 11.4645 7.90011 11.98 7.90011Z" fill="#E0E0E0"/>
<path d="M13.9999 16.6666H12.6666V9.3999H10.6666C10.4898 9.3999 10.3202 9.47014 10.1952 9.59516C10.0702 9.72019 9.99992 9.88976 9.99992 10.0666C9.99992 10.2434 10.0702 10.4129 10.1952 10.538C10.3202 10.663 10.4898 10.7332 10.6666 10.7332H11.3333V16.6666H9.99992C9.82311 16.6666 9.65354 16.7368 9.52851 16.8618C9.40349 16.9869 9.33325 17.1564 9.33325 17.3332C9.33325 17.51 9.40349 17.6796 9.52851 17.8046C9.65354 17.9297 9.82311 17.9999 9.99992 17.9999H13.9999C14.1767 17.9999 14.3463 17.9297 14.4713 17.8046C14.5963 17.6796 14.6666 17.51 14.6666 17.3332C14.6666 17.1564 14.5963 16.9869 14.4713 16.8618C14.3463 16.7368 14.1767 16.6666 13.9999 16.6666Z" fill="#E0E0E0"/>
<path d="M11.9999 22.6666C9.89026 22.6666 7.82797 22.041 6.07384 20.8689C4.31972 19.6969 2.95254 18.031 2.14521 16.0819C1.33787 14.1328 1.12664 11.9881 1.53821 9.91896C1.94979 7.84983 2.96569 5.94921 4.45745 4.45745C5.94921 2.96569 7.84983 1.94979 9.91896 1.53821C11.9881 1.12664 14.1328 1.33787 16.0819 2.14521C18.031 2.95254 19.6969 4.31972 20.8689 6.07384C22.041 7.82797 22.6666 9.89026 22.6666 11.9999C22.6666 14.8289 21.5428 17.542 19.5424 19.5424C17.542 21.5428 14.8289 22.6666 11.9999 22.6666ZM11.9999 2.66659C10.154 2.66659 8.34946 3.21398 6.8146 4.23954C5.27974 5.2651 4.08347 6.72277 3.37705 8.42821C2.67063 10.1337 2.4858 12.0103 2.84593 13.8208C3.20606 15.6313 4.09497 17.2943 5.40026 18.5996C6.70555 19.9049 8.36859 20.7938 10.1791 21.1539C11.9896 21.514 13.8662 21.3292 15.5716 20.6228C17.2771 19.9164 18.7347 18.7201 19.7603 17.1852C20.7859 15.6504 21.3333 13.8459 21.3333 11.9999C21.3333 9.52457 20.3499 7.1506 18.5996 5.40026C16.8492 3.64992 14.4753 2.66659 11.9999 2.66659Z" fill="#E0E0E0"/>
</svg>
