<svg width="24" height="24" viewBox="0 0 24 24" fill="none" xmlns="http://www.w3.org/2000/svg">
<path d="M21.3333 18.6667H2.66659V14.2133C2.17008 13.9755 1.71887 13.6529 1.33325 13.26V18.6667C1.33325 19.0203 1.47373 19.3594 1.72378 19.6095C1.97382 19.8595 2.31296 20 2.66659 20H21.3333C21.6869 20 22.026 19.8595 22.2761 19.6095C22.5261 19.3594 22.6666 19.0203 22.6666 18.6667V13.26C22.2838 13.6545 21.8319 13.9753 21.3333 14.2067V18.6667Z" fill="#E0E0E0"/>
<path d="M16.6666 14.9334C16.8434 14.9334 17.013 14.8631 17.138 14.7381C17.263 14.6131 17.3333 14.4435 17.3333 14.2667V10.6267H15.9999V12H9.33325V13.3334H15.9999V14.2667C15.9999 14.4435 16.0702 14.6131 16.1952 14.7381C16.3202 14.8631 16.4898 14.9334 16.6666 14.9334Z" fill="#E0E0E0"/>
<path d="M21.9999 4.00005H15.9999V2.92005C15.9929 2.49332 15.8171 2.08675 15.511 1.78937C15.2048 1.492 14.7933 1.32803 14.3666 1.33338H9.63325C9.2065 1.32803 8.79501 1.492 8.48889 1.78937C8.18276 2.08675 8.00694 2.49332 7.99992 2.92005V4.00005H1.99992C1.82311 4.00005 1.65354 4.07028 1.52851 4.19531C1.40349 4.32033 1.33325 4.4899 1.33325 4.66671V10C1.33325 10.8841 1.68444 11.7319 2.30956 12.3571C2.93468 12.9822 3.78253 13.3334 4.66658 13.3334H6.66658V14.2667C6.66658 14.4435 6.73682 14.6131 6.86185 14.7381C6.98687 14.8631 7.15644 14.9334 7.33325 14.9334C7.51006 14.9334 7.67963 14.8631 7.80466 14.7381C7.92968 14.6131 7.99992 14.4435 7.99992 14.2667V10.6267H6.66658V12H4.66658C4.13615 12 3.62744 11.7893 3.25237 11.4143C2.8773 11.0392 2.66659 10.5305 2.66659 10V5.33338H21.3333V10C21.3333 10.5305 21.1225 11.0392 20.7475 11.4143C20.3724 11.7893 19.8637 12 19.3333 12H18.6666V13.3334H19.3333C20.2173 13.3334 21.0652 12.9822 21.6903 12.3571C22.3154 11.7319 22.6666 10.8841 22.6666 10V4.66671C22.6666 4.4899 22.5963 4.32033 22.4713 4.19531C22.3463 4.07028 22.1767 4.00005 21.9999 4.00005ZM14.6666 4.00005H9.33325V2.95338C9.33669 2.87615 9.3698 2.80322 9.4257 2.74981C9.48159 2.69641 9.55594 2.66664 9.63325 2.66671H14.3733C14.4109 2.66583 14.4484 2.67237 14.4835 2.68596C14.5186 2.69955 14.5507 2.71994 14.5779 2.74594C14.6052 2.77194 14.627 2.80305 14.6422 2.8375C14.6574 2.87195 14.6657 2.90906 14.6666 2.94671V4.00005Z" fill="#E0E0E0"/>
</svg>
