<svg width="24" height="24" viewBox="0 0 24 24" fill="none" xmlns="http://www.w3.org/2000/svg">
<path d="M12.0002 1.3335C9.8905 1.3335 7.82821 1.95909 6.07409 3.13115C4.31996 4.30322 2.95279 5.96913 2.14545 7.91821C1.33812 9.86728 1.12688 12.012 1.53846 14.0811C1.95003 16.1503 2.96594 18.0509 4.4577 19.5426C5.94946 21.0344 7.85007 22.0503 9.9192 22.4619C11.9883 22.8734 14.133 22.6622 16.0821 21.8549C18.0312 21.0475 19.6971 19.6804 20.8692 17.9262C22.0412 16.1721 22.6668 14.1098 22.6668 12.0002C22.6668 9.17119 21.543 6.45808 19.5426 4.45769C17.5423 2.4573 14.8291 1.3335 12.0002 1.3335ZM12.0002 21.3335C10.1542 21.3335 8.3497 20.7861 6.81485 19.7605C5.27999 18.735 4.08371 17.2773 3.37729 15.5719C2.67087 13.8664 2.48604 11.9898 2.84617 10.1793C3.2063 8.36883 4.09521 6.70579 5.4005 5.4005C6.70579 4.09521 8.36884 3.2063 10.1793 2.84617C11.9898 2.48604 13.8664 2.67087 15.5719 3.37729C17.2773 4.0837 18.735 5.27998 19.7606 6.81484C20.7861 8.3497 21.3335 10.1542 21.3335 12.0002C21.3335 14.4755 20.3502 16.8495 18.5998 18.5998C16.8495 20.3502 14.4755 21.3335 12.0002 21.3335Z" fill="#FAFAFA"/>
<path d="M12.1932 5.94647C11.4707 5.93453 10.7545 6.08186 10.0955 6.37797C9.43641 6.67409 8.85066 7.11174 8.37984 7.65981C8.31443 7.72042 8.26184 7.79355 8.2252 7.87485C8.18856 7.95616 8.1686 8.04398 8.1665 8.13314C8.16646 8.21539 8.18296 8.29682 8.21503 8.37257C8.24709 8.44831 8.29407 8.51684 8.35316 8.57406C8.41225 8.63128 8.48224 8.67603 8.55898 8.70565C8.63572 8.73527 8.71763 8.74916 8.79984 8.74647C8.97595 8.74211 9.14436 8.67332 9.27317 8.55314C9.62948 8.13559 10.072 7.8002 10.5703 7.57003C11.0687 7.33985 11.6109 7.22037 12.1598 7.21981C13.7332 7.21981 14.7132 8.23314 14.7132 9.49314V9.52647C14.7132 10.9998 13.5398 11.8198 11.6865 11.9598C11.6115 11.9627 11.5379 11.9814 11.4706 12.0147C11.4032 12.048 11.3437 12.0952 11.2959 12.1531C11.2481 12.211 11.213 12.2783 11.193 12.3507C11.173 12.4231 11.1685 12.4989 11.1798 12.5731V14.4065C11.1964 14.5715 11.2739 14.7244 11.3972 14.8353C11.5205 14.9463 11.6807 15.0073 11.8465 15.0065H11.9198C12.0849 14.9899 12.2378 14.9124 12.3487 14.7891C12.4597 14.6659 12.5207 14.5057 12.5198 14.3398V12.9665C14.5198 12.6865 16.1398 11.6331 16.1398 9.44647V9.41314C16.1198 7.41314 14.5598 5.94647 12.1932 5.94647Z" fill="#FAFAFA"/>
<path d="M11.8534 18.3C12.3136 18.3 12.6867 17.9269 12.6867 17.4666C12.6867 17.0064 12.3136 16.6333 11.8534 16.6333C11.3931 16.6333 11.02 17.0064 11.02 17.4666C11.02 17.9269 11.3931 18.3 11.8534 18.3Z" fill="#FAFAFA"/>
</svg>
