<svg width="24" height="24" viewBox="0 0 24 24" fill="none" xmlns="http://www.w3.org/2000/svg">
<path d="M11.9332 11.5336C13.7332 11.5336 15.1332 10.0669 15.1332 8.26689C15.1332 6.46689 13.6665 5.06689 11.8665 5.06689C10.0665 5.06689 8.6665 6.53356 8.6665 8.26689C8.6665 10.0669 10.1332 11.5336 11.9332 11.5336ZM11.8665 6.40023C11.9332 6.40023 11.9332 6.40023 11.8665 6.40023C12.9332 6.40023 13.7998 7.26689 13.7998 8.33356C13.7998 9.40023 12.9332 10.2002 11.8665 10.2002C10.7998 10.2002 9.99984 9.33356 9.99984 8.33356C9.99984 7.26689 10.8665 6.40023 11.8665 6.40023Z" fill="#FAFAFA"/>
<path d="M21.8 11.1331C20.5333 9.99978 18.8667 9.39978 17.1333 9.46644H16.6C16.4667 9.99978 16.2667 10.4664 16 10.8664C16.4 10.7998 16.7333 10.7998 17.1333 10.7998C18.4 10.7331 19.6667 11.1331 20.6667 11.8664V16.6664H22V11.3331L21.8 11.1331Z" fill="#FAFAFA"/>
<path d="M15.5998 5.20003C15.9332 4.40003 16.8665 4.00003 17.7332 4.33337C18.5332 4.6667 18.9332 5.60003 18.5998 6.4667C18.3332 7.0667 17.7332 7.4667 17.1332 7.4667C16.9998 7.4667 16.7998 7.4667 16.6665 7.40003C16.7332 7.73337 16.7332 8.0667 16.7332 8.33336V8.73337C16.8665 8.73337 16.9998 8.80003 17.1332 8.80003C18.7998 8.80003 20.1332 7.4667 20.1332 5.8667C20.1332 4.20003 18.7998 2.8667 17.1998 2.8667C16.1332 2.8667 15.1998 3.40003 14.6665 4.33337C14.9998 4.53337 15.3332 4.80003 15.5998 5.20003Z" fill="#FAFAFA"/>
<path d="M8 10.9333C7.73333 10.5333 7.53333 10.0667 7.4 9.53335H6.86667C5.13333 9.46668 3.46667 10.0667 2.2 11.1333L2 11.3333V16.6667H3.33333V11.8667C4.4 11.1333 5.6 10.7333 6.86667 10.8C7.26667 10.8 7.66667 10.8667 8 10.9333Z" fill="#FAFAFA"/>
<path d="M6.86668 8.73311C7.00001 8.73311 7.13334 8.73311 7.26667 8.66645V8.26645C7.26667 7.93311 7.26668 7.59978 7.33334 7.33311C7.20001 7.39978 7.00001 7.39978 6.86668 7.39978C6.00001 7.39978 5.26668 6.66645 5.26668 5.79978C5.26668 4.93311 6.00001 4.19978 6.86668 4.19978C7.53334 4.19978 8.13334 4.59978 8.40001 5.19978C8.66668 4.86645 9.06668 4.53311 9.40001 4.26645C8.53334 2.86645 6.73334 2.39978 5.33334 3.26645C3.93334 4.13311 3.46668 5.93311 4.33334 7.33311C4.86668 8.19978 5.80001 8.73311 6.86668 8.73311Z" fill="#FAFAFA"/>
<path d="M17.3998 15.1333L17.2665 14.9333C15.9332 13.4667 14.0665 12.6 12.0665 12.6667C10.0665 12.6 8.13317 13.4667 6.79984 14.9333L6.6665 15.1333V20.2C6.6665 20.8 7.13317 21.3333 7.79984 21.3333H16.3332C16.9332 21.3333 17.4665 20.8 17.4665 20.2V15.1333H17.3998ZM16.0665 20H7.99984V15.6C9.0665 14.5333 10.5332 14 12.0665 14C13.5332 13.9333 14.9998 14.5333 16.0665 15.6V20Z" fill="#FAFAFA"/>
</svg>
