<svg width="24" height="24" viewBox="0 0 24 24" fill="none" xmlns="http://www.w3.org/2000/svg">
<path d="M1.71777 6.21443C1.71777 5.47561 2.01127 4.76705 2.53369 4.24463C3.05611 3.7222 3.76467 3.42871 4.50349 3.42871H19.5009C20.2397 3.42871 20.9483 3.7222 21.4707 4.24463C21.9931 4.76705 22.2866 5.47561 22.2866 6.21443V17.7859C22.2866 18.5247 21.9931 19.2332 21.4707 19.7557C20.9483 20.2781 20.2397 20.5716 19.5009 20.5716H12.4072L11.1215 19.2859H19.5009C19.8987 19.2859 20.2803 19.1278 20.5616 18.8465C20.8429 18.5652 21.0009 18.1837 21.0009 17.7859V6.21443C21.0009 5.8166 20.8429 5.43507 20.5616 5.15377C20.2803 4.87246 19.8987 4.71443 19.5009 4.71443H4.50349C4.10566 4.71443 3.72413 4.87246 3.44283 5.15377C3.16152 5.43507 3.00349 5.8166 3.00349 6.21443V10.9116C2.53206 11.1576 2.0992 11.4687 1.71777 11.833V6.21443Z" fill="#FAFAFA"/>
<path d="M9.96362 12.4288C9.5673 11.9217 9.08655 11.4868 8.54248 11.1431H17.3573C17.5278 11.1431 17.6913 11.2108 17.8119 11.3314C17.9325 11.4519 18.0002 11.6154 18.0002 11.7859C18.0002 11.9564 17.9325 12.1199 17.8119 12.2405C17.6913 12.3611 17.5278 12.4288 17.3573 12.4288H9.96362Z" fill="#FAFAFA"/>
<path d="M11.1428 15.8575H15.6428C15.8133 15.8575 15.9768 15.7898 16.0974 15.6692C16.2179 15.5486 16.2857 15.3851 16.2857 15.2146C16.2857 15.0441 16.2179 14.8806 16.0974 14.7601C15.9768 14.6395 15.8133 14.5718 15.6428 14.5718H10.9937C11.0914 14.9849 11.1428 15.4152 11.1428 15.8575Z" fill="#FAFAFA"/>
<path d="M6 8.35721C6 8.18672 6.06773 8.0232 6.18829 7.90264C6.30885 7.78209 6.47236 7.71436 6.64286 7.71436H13.0714C13.2419 7.71436 13.4054 7.78209 13.526 7.90264C13.6466 8.0232 13.7143 8.18672 13.7143 8.35721C13.7143 8.52771 13.6466 8.69122 13.526 8.81178C13.4054 8.93234 13.2419 9.00007 13.0714 9.00007H6.64286C6.47236 9.00007 6.30885 8.93234 6.18829 8.81178C6.06773 8.69122 6 8.52771 6 8.35721Z" fill="#FAFAFA"/>
<path d="M9.3284 18.7055C10.0501 17.7536 10.3835 16.5632 10.2612 15.3749C10.139 14.1866 9.57016 13.089 8.66975 12.304C7.76935 11.5189 6.6045 11.105 5.41063 11.1458C4.21675 11.1866 3.08289 11.6792 2.23821 12.5239C1.39352 13.3685 0.900995 14.5024 0.860177 15.6963C0.81936 16.8901 1.23329 18.055 2.01832 18.9554C2.80334 19.8558 3.90091 20.4246 5.08921 20.5469C6.27751 20.6691 7.46791 20.3357 8.41983 19.614L10.903 22.0972C10.9618 22.1603 11.0328 22.211 11.1117 22.2461C11.1905 22.2813 11.2756 22.3002 11.362 22.3017C11.4483 22.3032 11.534 22.2873 11.6141 22.255C11.6941 22.2227 11.7668 22.1746 11.8279 22.1135C11.8889 22.0525 11.937 21.9797 11.9694 21.8997C12.0017 21.8197 12.0176 21.7339 12.016 21.6476C12.0145 21.5613 11.9956 21.4762 11.9605 21.3973C11.9254 21.3184 11.8747 21.2475 11.8115 21.1886L9.3284 18.7055ZM9.00011 15.8572C9.00011 16.7665 8.63889 17.6386 7.99591 18.2816C7.35293 18.9245 6.48086 19.2858 5.57154 19.2858C4.66223 19.2858 3.79016 18.9245 3.14718 18.2816C2.50419 17.6386 2.14297 16.7665 2.14297 15.8572C2.14297 14.9479 2.50419 14.0758 3.14718 13.4328C3.79016 12.7898 4.66223 12.4286 5.57154 12.4286C6.48086 12.4286 7.35293 12.7898 7.99591 13.4328C8.63889 14.0758 9.00011 14.9479 9.00011 15.8572Z" fill="#FAFAFA"/>
</svg>
