<svg width="20" height="20" viewBox="0 0 20 20" fill="none" xmlns="http://www.w3.org/2000/svg">
<path d="M9.99978 4.33355C10.8896 4.33355 11.6109 3.61223 11.6109 2.72244C11.6109 1.83265 10.8896 1.11133 9.99978 1.11133C9.10999 1.11133 8.38867 1.83265 8.38867 2.72244C8.38867 3.61223 9.10999 4.33355 9.99978 4.33355Z" fill="#6868AC"/>
<path d="M9.99978 11.6109C10.8896 11.6109 11.6109 10.8896 11.6109 9.99978C11.6109 9.10999 10.8896 8.38867 9.99978 8.38867C9.10999 8.38867 8.38867 9.10999 8.38867 9.99978C8.38867 10.8896 9.10999 11.6109 9.99978 11.6109Z" fill="#6868AC"/>
<path d="M9.99978 18.8887C10.8896 18.8887 11.6109 18.1674 11.6109 17.2776C11.6109 16.3878 10.8896 15.6665 9.99978 15.6665C9.10999 15.6665 8.38867 16.3878 8.38867 17.2776C8.38867 18.1674 9.10999 18.8887 9.99978 18.8887Z" fill="#6868AC"/>
</svg>
