<svg width="24" height="24" viewBox="0 0 24 24" fill="none" xmlns="http://www.w3.org/2000/svg">
<path d="M12.0002 1.6665C6.12016 1.6665 1.3335 5.85317 1.3335 10.9998C1.3335 16.1465 6.12016 20.3332 12.0002 20.3332C13.1003 20.3319 14.195 20.1794 15.2535 19.8798L18.9402 22.2265C19.0408 22.2911 19.157 22.3274 19.2765 22.3316C19.396 22.3359 19.5144 22.3079 19.6194 22.2507C19.7244 22.1934 19.812 22.109 19.8731 22.0062C19.9343 21.9034 19.9666 21.7861 19.9668 21.6665V17.1798C20.801 16.3796 21.4666 15.4206 21.9246 14.3593C22.3826 13.2979 22.6236 12.1557 22.6335 10.9998C22.6668 5.85317 17.8802 1.6665 12.0002 1.6665ZM18.8602 16.4065C18.7931 16.4687 18.7396 16.5439 18.7029 16.6277C18.6662 16.7114 18.6471 16.8018 18.6468 16.8932V20.4532L15.7268 18.5932C15.6454 18.5417 15.5537 18.5085 15.4582 18.4958C15.3627 18.4831 15.2655 18.4913 15.1735 18.5198C14.146 18.839 13.0761 19.0008 12.0002 18.9998C6.8535 18.9998 2.66683 15.4132 2.66683 10.9998C2.66683 6.5865 6.8535 2.99984 12.0002 2.99984C17.1468 2.99984 21.3335 6.5865 21.3335 10.9998C21.3183 12.0232 21.0906 13.0323 20.6648 13.963C20.239 14.8937 19.6245 15.7258 18.8602 16.4065Z" fill="#FAFAFA"/>
<path d="M16.6665 10.3335H7.33317C7.15636 10.3335 6.98679 10.4037 6.86177 10.5288C6.73674 10.6538 6.6665 10.8234 6.6665 11.0002C6.6665 11.177 6.73674 11.3465 6.86177 11.4716C6.98679 11.5966 7.15636 11.6668 7.33317 11.6668H16.6665C16.8433 11.6668 17.0129 11.5966 17.1379 11.4716C17.2629 11.3465 17.3332 11.177 17.3332 11.0002C17.3332 10.8234 17.2629 10.6538 17.1379 10.5288C17.0129 10.4037 16.8433 10.3335 16.6665 10.3335Z" fill="#FAFAFA"/>
<path d="M14.5002 13.6665H9.50016C9.32335 13.6665 9.15378 13.7367 9.02876 13.8618C8.90373 13.9868 8.8335 14.1564 8.8335 14.3332C8.8335 14.51 8.90373 14.6796 9.02876 14.8046C9.15378 14.9296 9.32335 14.9998 9.50016 14.9998H14.5002C14.677 14.9998 14.8465 14.9296 14.9716 14.8046C15.0966 14.6796 15.1668 14.51 15.1668 14.3332C15.1668 14.1564 15.0966 13.9868 14.9716 13.8618C14.8465 13.7367 14.677 13.6665 14.5002 13.6665Z" fill="#FAFAFA"/>
<path d="M7.52018 8.33333H16.4802C16.657 8.33333 16.8266 8.2631 16.9516 8.13807C17.0766 8.01305 17.1469 7.84348 17.1469 7.66667C17.1469 7.48986 17.0766 7.32029 16.9516 7.19526C16.8266 7.07024 16.657 7 16.4802 7H7.52018C7.34337 7 7.1738 7.07024 7.04878 7.19526C6.92375 7.32029 6.85352 7.48986 6.85352 7.66667C6.85352 7.84348 6.92375 8.01305 7.04878 8.13807C7.1738 8.2631 7.34337 8.33333 7.52018 8.33333Z" fill="#FAFAFA"/>
</svg>
