<svg width="20" height="20" viewBox="0 0 20 20" fill="none" xmlns="http://www.w3.org/2000/svg">
<path d="M18.3336 6.11133H1.66688C1.51954 6.11133 1.37823 6.16986 1.27405 6.27405C1.16986 6.37823 1.11133 6.51954 1.11133 6.66688C1.11133 6.81423 1.16986 6.95553 1.27405 7.05972C1.37823 7.16391 1.51954 7.22244 1.66688 7.22244H18.3336C18.4809 7.22244 18.6222 7.16391 18.7264 7.05972C18.8306 6.95553 18.8891 6.81423 18.8891 6.66688C18.8891 6.51954 18.8306 6.37823 18.7264 6.27405C18.6222 6.16986 18.4809 6.11133 18.3336 6.11133Z" fill="#6868AC"/>
<path d="M15.5553 9.44434H4.44423C4.29688 9.44434 4.15558 9.50287 4.05139 9.60705C3.9472 9.71124 3.88867 9.85255 3.88867 9.99989C3.88867 10.1472 3.9472 10.2885 4.05139 10.3927C4.15558 10.4969 4.29688 10.5554 4.44423 10.5554H15.5553C15.7027 10.5554 15.844 10.4969 15.9482 10.3927C16.0524 10.2885 16.1109 10.1472 16.1109 9.99989C16.1109 9.85255 16.0524 9.71124 15.9482 9.60705C15.844 9.50287 15.7027 9.44434 15.5553 9.44434Z" fill="#6868AC"/>
<path d="M12.7781 12.7778H7.22255C7.07521 12.7778 6.9339 12.8364 6.82971 12.9405C6.72552 13.0447 6.66699 13.186 6.66699 13.3334C6.66699 13.4807 6.72552 13.622 6.82971 13.7262C6.9339 13.8304 7.07521 13.8889 7.22255 13.8889H12.7781C12.9254 13.8889 13.0668 13.8304 13.1709 13.7262C13.2751 13.622 13.3337 13.4807 13.3337 13.3334C13.3337 13.186 13.2751 13.0447 13.1709 12.9405C13.0668 12.8364 12.9254 12.7778 12.7781 12.7778Z" fill="#6868AC"/>
</svg>
