<svg width="20" height="20" viewBox="0 0 20 20" fill="none" xmlns="http://www.w3.org/2000/svg">
<path d="M7.77821 2.22217H3.33377C3.03908 2.22217 2.75647 2.33923 2.54809 2.5476C2.33972 2.75598 2.22266 3.03859 2.22266 3.33328V7.77772C2.22266 8.07241 2.33972 8.35502 2.54809 8.5634C2.75647 8.77177 3.03908 8.88883 3.33377 8.88883H7.77821C8.0729 8.88883 8.35551 8.77177 8.56389 8.5634C8.77226 8.35502 8.88932 8.07241 8.88932 7.77772V3.33328C8.88932 3.03859 8.77226 2.75598 8.56389 2.5476C8.35551 2.33923 8.0729 2.22217 7.77821 2.22217ZM3.33377 7.77772V3.33328H7.77821V7.77772H3.33377Z" fill="#6868AC"/>
<path d="M16.6669 2.22217H12.2224C11.9278 2.22217 11.6451 2.33923 11.4368 2.5476C11.2284 2.75598 11.1113 3.03859 11.1113 3.33328V7.77772C11.1113 8.07241 11.2284 8.35502 11.4368 8.5634C11.6451 8.77177 11.9278 8.88883 12.2224 8.88883H16.6669C16.9616 8.88883 17.2442 8.77177 17.4526 8.5634C17.6609 8.35502 17.778 8.07241 17.778 7.77772V3.33328C17.778 3.03859 17.6609 2.75598 17.4526 2.5476C17.2442 2.33923 16.9616 2.22217 16.6669 2.22217ZM12.2224 7.77772V3.33328H16.6669V7.77772H12.2224Z" fill="#6868AC"/>
<path d="M7.77821 11.1113H3.33377C3.03908 11.1113 2.75647 11.2284 2.54809 11.4368C2.33972 11.6451 2.22266 11.9278 2.22266 12.2224V16.6669C2.22266 16.9616 2.33972 17.2442 2.54809 17.4526C2.75647 17.6609 3.03908 17.778 3.33377 17.778H7.77821C8.0729 17.778 8.35551 17.6609 8.56389 17.4526C8.77226 17.2442 8.88932 16.9616 8.88932 16.6669V12.2224C8.88932 11.9278 8.77226 11.6451 8.56389 11.4368C8.35551 11.2284 8.0729 11.1113 7.77821 11.1113ZM3.33377 16.6669V12.2224H7.77821V16.6669H3.33377Z" fill="#6868AC"/>
<path d="M16.6669 11.1113H12.2224C11.9278 11.1113 11.6451 11.2284 11.4368 11.4368C11.2284 11.6451 11.1113 11.9278 11.1113 12.2224V16.6669C11.1113 16.9616 11.2284 17.2442 11.4368 17.4526C11.6451 17.6609 11.9278 17.778 12.2224 17.778H16.6669C16.9616 17.778 17.2442 17.6609 17.4526 17.4526C17.6609 17.2442 17.778 16.9616 17.778 16.6669V12.2224C17.778 11.9278 17.6609 11.6451 17.4526 11.4368C17.2442 11.2284 16.9616 11.1113 16.6669 11.1113ZM12.2224 16.6669V12.2224H16.6669V16.6669H12.2224Z" fill="#6868AC"/>
</svg>
