<svg width="20" height="20" viewBox="0 0 20 20" fill="none" xmlns="http://www.w3.org/2000/svg">
<path d="M3.33377 5.66656H17.6393C17.8014 5.66656 17.9568 5.60217 18.0714 5.48757C18.186 5.37296 18.2504 5.21752 18.2504 5.05545C18.2504 4.89337 18.186 4.73793 18.0714 4.62333C17.9568 4.50872 17.8014 4.44434 17.6393 4.44434H3.33377C3.17169 4.44434 3.01625 4.50872 2.90165 4.62333C2.78704 4.73793 2.72266 4.89337 2.72266 5.05545C2.72266 5.21752 2.78704 5.37296 2.90165 5.48757C3.01625 5.60217 3.17169 5.66656 3.33377 5.66656Z" fill="#6868AC"/>
<path d="M17.6393 7.77783H3.33377C3.17169 7.77783 3.01625 7.84222 2.90165 7.95682C2.78704 8.07143 2.72266 8.22687 2.72266 8.38894C2.72266 8.55102 2.78704 8.70646 2.90165 8.82106C3.01625 8.93567 3.17169 9.00005 3.33377 9.00005H17.6393C17.8014 9.00005 17.9568 8.93567 18.0714 8.82106C18.186 8.70646 18.2504 8.55102 18.2504 8.38894C18.2504 8.22687 18.186 8.07143 18.0714 7.95682C17.9568 7.84222 17.8014 7.77783 17.6393 7.77783Z" fill="#6868AC"/>
<path d="M17.2886 11.1113H3.67752C3.51544 11.1113 3.36 11.1757 3.2454 11.2903C3.13079 11.4049 3.06641 11.5604 3.06641 11.7224C3.06641 11.8845 3.13079 12.04 3.2454 12.1546C3.36 12.2692 3.51544 12.3336 3.67752 12.3336H17.2886C17.4507 12.3336 17.6061 12.2692 17.7207 12.1546C17.8354 12.04 17.8997 11.8845 17.8997 11.7224C17.8997 11.5604 17.8354 11.4049 17.7207 11.2903C17.6061 11.1757 17.4507 11.1113 17.2886 11.1113Z" fill="#6868AC"/>
<path d="M16.9168 14.3501H3.66678C3.5047 14.3501 3.34926 14.4145 3.23465 14.5291C3.12005 14.6437 3.05566 14.7991 3.05566 14.9612C3.05566 15.1233 3.12005 15.2787 3.23465 15.3933C3.34926 15.5079 3.5047 15.5723 3.66678 15.5723H16.9168C17.0789 15.5723 17.2343 15.5079 17.3489 15.3933C17.4635 15.2787 17.5279 15.1233 17.5279 14.9612C17.5279 14.7991 17.4635 14.6437 17.3489 14.5291C17.2343 14.4145 17.0789 14.3501 16.9168 14.3501Z" fill="#6868AC"/>
</svg>
