<svg width="24" height="24" viewBox="0 0 24 24" fill="none" xmlns="http://www.w3.org/2000/svg">
<path d="M4.66665 4.00008H15.3333V10.5334H16.6666V4.00008C16.6666 3.64646 16.5262 3.30732 16.2761 3.05727C16.0261 2.80722 15.6869 2.66675 15.3333 2.66675H4.66665C4.31302 2.66675 3.97389 2.80722 3.72384 3.05727C3.47379 3.30732 3.33331 3.64646 3.33331 4.00008V20.0001C3.33331 20.3537 3.47379 20.6928 3.72384 20.9429C3.97389 21.1929 4.31302 21.3334 4.66665 21.3334H15.3333C15.6869 21.3334 16.0261 21.1929 16.2761 20.9429C16.5262 20.6928 16.6666 20.3537 16.6666 20.0001H4.66665V4.00008Z" fill="#396EB0"/>
<path d="M18.7734 11.5199C18.6458 11.4107 18.4818 11.3536 18.314 11.3601C18.1462 11.3666 17.987 11.4362 17.8683 11.5549C17.7496 11.6736 17.68 11.8328 17.6735 12.0006C17.6671 12.1683 17.7241 12.3324 17.8334 12.4599L20.0867 14.6666H10.42C10.2432 14.6666 10.0736 14.7368 9.94862 14.8619C9.82359 14.9869 9.75336 15.1564 9.75336 15.3333C9.75336 15.5101 9.82359 15.6796 9.94862 15.8047C10.0736 15.9297 10.2432 15.9999 10.42 15.9999H20.0867L17.8334 18.3066C17.7636 18.3664 17.7069 18.4399 17.6669 18.5226C17.6269 18.6053 17.6044 18.6954 17.6008 18.7872C17.5973 18.879 17.6127 18.9706 17.6463 19.0561C17.6798 19.1417 17.7306 19.2194 17.7956 19.2844C17.8606 19.3493 17.9383 19.4002 18.0238 19.4337C18.1094 19.4672 18.2009 19.4827 18.2927 19.4791C18.3845 19.4756 18.4746 19.4531 18.5573 19.4131C18.64 19.3731 18.7136 19.3164 18.7734 19.2466L22.6667 15.3799L18.7734 11.5199Z" fill="#396EB0"/>
</svg>
