<svg width="30" height="30" viewBox="0 0 30 30" fill="none" xmlns="http://www.w3.org/2000/svg">
<path d="M28.4015 5.56544C28.0696 5.33317 27.6951 5.16858 27.2996 5.08106C26.904 4.99355 26.495 4.98482 26.0961 5.05538C25.6971 5.12594 25.316 5.27441 24.9744 5.4923C24.6329 5.7102 24.3376 5.99325 24.1055 6.32529L12.3773 23.0747L4.68748 17.8218C4.07073 17.4 3.31165 17.2404 2.57722 17.3782C1.8428 17.516 1.19319 17.9399 0.771311 18.5566C0.34943 19.1734 0.189832 19.9324 0.327628 20.6669C0.465423 21.4013 0.889324 22.0509 1.50608 22.4728L11.8139 29.5134C12.1314 29.7301 12.4901 29.879 12.8678 29.9507C13.2454 30.0224 13.6338 30.0154 14.0086 29.9301C14.4084 29.8603 14.7904 29.7122 15.1328 29.4943C15.4753 29.2765 15.7713 28.9932 16.004 28.6608L29.1619 9.86388C29.6308 9.19268 29.8141 8.36276 29.6714 7.55649C29.5288 6.75023 29.0719 6.03358 28.4011 5.56403" fill="#26A69A"/>
</svg>
