<svg width="89" height="99" viewBox="0 0 89 99" fill="none" xmlns="http://www.w3.org/2000/svg">
<path d="M88.0698 61.722L49.1414 22.8894V6.35083L44.0349 0L38.9285 6.35083V22.8894L0 61.722L13.1641 74.8536H0V76.4413H87.9593V74.8536H74.9168L88.0809 61.722H88.0698ZM85.9477 87.3899H87.7272V78.5693H85.9477V87.3899ZM78.697 78.6796V87.3899H84.8976V85.9124H80.4765V78.6796H78.697ZM75.0052 85.3942L75.779 87.3899H77.7132L74.1873 78.5693H72.3084L68.8819 87.3899H70.7388L71.4683 85.3942H74.9942H75.0052ZM73.2257 80.6532L74.4416 83.9609H72.032L73.2257 80.6532ZM60.2717 78.6024V87.423H62.0512V84.7658L63.4881 83.2993L65.9087 87.423H68.2077L64.715 82.0534L68.0308 78.6355H65.6434L62.0512 82.5386V78.6355H60.2717V78.6024ZM56.5358 85.6809C56.1733 85.9628 55.7242 86.1109 55.2647 86.0999C54.7981 86.1261 54.3381 85.981 53.9715 85.6919C53.6189 85.3516 53.3961 84.8994 53.3415 84.413L51.6062 84.5783C51.676 85.428 52.0719 86.218 52.7115 86.7835C53.445 87.3407 54.3557 87.6148 55.2758 87.5553C55.928 87.5746 56.5776 87.4659 57.1879 87.2355C57.6787 87.0407 58.0961 86.6976 58.3816 86.2543C58.6447 85.8347 58.7896 85.3522 58.8013 84.8575C58.813 84.3628 58.6909 83.8741 58.448 83.4427C58.2113 83.0622 57.875 82.7534 57.4753 82.5496C56.8612 82.2654 56.2157 82.0545 55.5521 81.9211C54.9749 81.8303 54.42 81.632 53.9162 81.3368C53.8345 81.2746 53.7681 81.1945 53.7221 81.1028C53.6761 81.0111 53.6518 80.9101 53.651 80.8076C53.6498 80.7007 53.6755 80.5953 53.7257 80.5009C53.7759 80.4065 53.849 80.3262 53.9383 80.2673C54.2993 80.0345 54.7251 79.9226 55.1542 79.9475C55.5453 79.9234 55.9336 80.028 56.2595 80.2452C56.5364 80.4974 56.7097 80.8432 56.7458 81.2155L58.5253 81.1383C58.5249 80.7723 58.4457 80.4107 58.2932 80.0778C58.1407 79.7449 57.9183 79.4486 57.6411 79.2088C56.9237 78.6737 56.0365 78.4152 55.1431 78.4811C54.5498 78.4668 53.9596 78.5718 53.4078 78.7898C52.9573 78.9692 52.572 79.2806 52.3025 79.6829C52.0484 80.0529 51.9135 80.4914 51.9157 80.9399C51.9128 81.2748 51.9836 81.6064 52.123 81.9112C52.2624 82.2159 52.467 82.4866 52.7225 82.704C53.3171 83.1447 54.0054 83.4427 54.7342 83.575C55.471 83.7588 55.9463 83.8874 56.16 83.9609C56.4035 84.0322 56.6244 84.1651 56.8011 84.3468C56.9254 84.495 56.992 84.6829 56.989 84.876C56.9852 85.0407 56.9446 85.2024 56.87 85.3493C56.7954 85.4962 56.6888 85.6246 56.5579 85.725L56.5358 85.6809ZM43.1065 78.6134V83.2993C43.0888 84.0385 43.1481 84.7775 43.2833 85.5045C43.3725 85.8616 43.5426 86.1936 43.7807 86.4748C44.059 86.8023 44.4113 87.0593 44.8086 87.2245C45.4202 87.4473 46.0705 87.5449 46.7208 87.5112C47.2963 87.5318 47.8703 87.4419 48.4119 87.2466C48.8104 87.0935 49.1666 86.8478 49.4508 86.5299C49.7176 86.2126 49.9 85.8334 49.9814 85.4273C50.098 84.6983 50.1461 83.9601 50.1251 83.2222V78.6024H48.3456V83.4647C48.3572 83.9621 48.3314 84.4597 48.2682 84.9532C48.2147 85.256 48.049 85.5275 47.804 85.714C47.4791 85.9343 47.091 86.0427 46.6987 86.0227C46.2823 86.0444 45.8703 85.9281 45.5271 85.6919C45.2458 85.4822 45.0528 85.1757 44.9855 84.8319C44.9261 84.3455 44.904 83.8553 44.9192 83.3655V78.6024H43.1065V78.6134ZM41.4375 81.0722C41.446 80.5815 41.3116 80.0989 41.0506 79.6829C40.8123 79.2962 40.4501 79.001 40.0227 78.845C39.3545 78.6573 38.6602 78.579 37.9669 78.6134H34.2641V87.434H36.0436V83.7624H36.4084C36.7102 83.7491 37.0122 83.7826 37.3037 83.8617C37.5074 83.9384 37.6894 84.0633 37.8342 84.2255C38.1748 84.6349 38.4886 85.0658 38.7737 85.5155L40.0558 87.423H42.178L41.0727 85.703C40.776 85.2002 40.4357 84.7243 40.0558 84.2806C39.7767 83.9897 39.4565 83.7408 39.1053 83.5419C39.766 83.4851 40.3849 83.1959 40.8517 82.726C41.2484 82.2765 41.4579 81.6927 41.4375 81.0942V81.0722ZM39.4259 81.844C39.3058 82.02 39.131 82.1517 38.9285 82.2188C38.4004 82.3181 37.8625 82.3551 37.3258 82.3291H36.0105V80.1239H37.4031C38.14 80.1239 38.5711 80.1239 38.6964 80.1239C38.9544 80.1552 39.1931 80.2763 39.3706 80.4658C39.5299 80.6701 39.612 80.9238 39.6027 81.1824C39.6156 81.4161 39.5537 81.6478 39.4259 81.844ZM30.5835 85.3942L31.3572 87.3899H33.2915L29.7656 78.5693H27.8866L24.4602 87.3899H26.3502L27.0797 85.3942H30.6056H30.5835ZM28.804 80.6532L30.0198 83.9609H27.6324L28.8261 80.6532H28.804ZM17.4526 78.6796V87.3899H23.6533V85.9124H19.2321V78.6796H17.4526ZM15.7283 80.0909V78.6024H9.19606V87.423H15.8941V85.9455H10.9756V83.5529H15.3967V82.0755H10.9756V80.1239H15.7283V80.0909ZM6.88599 81.9542C7.09978 81.6258 7.21483 81.2432 7.21757 80.8516C7.22053 80.4911 7.125 80.1367 6.94125 79.8262C6.77455 79.5329 6.5442 79.2805 6.26703 79.0875C5.99109 78.9017 5.67813 78.7776 5.34962 78.7237C4.83312 78.6549 4.31213 78.6254 3.79115 78.6355H0.331575V87.4561H3.31588C4.45065 87.4561 5.16541 87.4377 5.46016 87.4009C5.88741 87.3653 6.29837 87.221 6.65386 86.9819C6.9815 86.7507 7.24411 86.4394 7.41651 86.0779C7.59871 85.7151 7.69333 85.3149 7.69284 84.9091C7.70268 84.4322 7.5508 83.966 7.26179 83.586C6.94585 83.1951 6.51158 82.9166 6.02387 82.7922C6.39574 82.6298 6.71108 82.3612 6.93018 82.0204L6.88599 81.9542ZM2.05583 80.0688H3.07272C3.91274 80.0688 4.42118 80.0688 4.59803 80.0688C4.85346 80.0844 5.09386 80.1945 5.27224 80.3775C5.42556 80.5631 5.50435 80.7989 5.49331 81.0391C5.49805 81.165 5.47696 81.2906 5.43135 81.4082C5.38574 81.5257 5.31657 81.6327 5.22805 81.7227C5.03267 81.9087 4.77885 82.0216 4.50958 82.0424C4.34379 82.0424 3.91275 82.0424 3.21641 82.0424H2.05583V80.0137V80.0688ZM5.57069 85.5045C5.40056 85.6935 5.1702 85.8182 4.91857 85.8573C4.51387 85.8877 4.10745 85.8877 3.70274 85.8573H2.05583V83.564H3.49273C4.02314 83.538 4.55465 83.5825 5.0733 83.6963C5.2948 83.7673 5.4882 83.9062 5.62594 84.0932C5.75996 84.2912 5.82592 84.5272 5.81386 84.7658C5.82506 85.0385 5.73447 85.3056 5.55963 85.5155L5.57069 85.5045ZM29.9645 89.5399H0V91.1276H29.4782L37.3479 99H50.7772L58.6137 91.1276H87.9704V89.5399H30.0198H29.9645ZM50.0588 97.4123H37.9005L31.6114 91.1276H56.37L50.1251 97.4123H50.0588ZM49.0972 47.6642V41.4567L67.7435 60.0571L44.9523 52.8243L49.0972 47.6642ZM47.5276 25.2269V30.861L44.8307 34.279V28.6448L47.5608 25.2489L47.5276 25.2269ZM44.7976 26.0869V20.0668L47.5276 16.6378V22.6469L44.7976 26.0428V26.0869ZM47.5276 33.3969V39.0311L44.7976 42.427V36.7928L47.5276 33.3969ZM47.5276 41.567V47.0798L44.7976 50.4758V44.9629L47.5276 41.567ZM47.5276 14.146L44.7976 17.5419V11.7093L47.5276 8.31341V14.146ZM38.9064 47.6752L43.0402 52.8353L20.3153 60.002L38.8953 41.4677V47.6863L38.9064 47.6752ZM15.4189 74.8536L2.21059 61.722L38.8953 25.1276V39.2075L16.3252 61.722L29.4892 74.8536H15.4189ZM43.2502 74.8536H31.7772L18.9779 62.0859L43.2944 54.434V74.8536H43.2502ZM43.2502 50.4978L40.5312 47.1129V41.6001L43.2502 44.9849V50.4978ZM43.2502 42.416L40.5312 39.0421V33.3969L43.2502 36.7818V42.416ZM43.2502 34.2459L40.5312 30.861V25.2379L43.2502 28.6228V34.279V34.2459ZM43.2502 26.0758L40.5312 22.6909V16.6378L43.2502 20.0227V26.0428V26.0758ZM43.2502 17.5199L40.5312 14.135V8.30237L43.2502 11.6873V17.5199ZM40.9843 6.32876L44.046 2.51386L47.1076 6.32876L44.046 10.1436L40.9843 6.32876ZM44.8418 74.8536V54.445L69.0698 62.163L56.3037 74.8536H44.8307H44.8418ZM58.5585 74.8536L71.7225 61.722L49.1635 39.2185V25.1386L85.8371 61.722L72.662 74.8536H58.5806H58.5585Z" fill="white"/>
</svg>
